<?xml version="1.0" standalone="no"?>
<!DOCTYPE svg PUBLIC "-//W3C//DTD SVG 20010904//EN"
 "http://www.w3.org/TR/2001/REC-SVG-20010904/DTD/svg10.dtd">
<svg version="1.0" xmlns="http://www.w3.org/2000/svg"
 width="300.000000pt" height="300.000000pt" viewBox="0 0 300.000000 300.000000"
 preserveAspectRatio="xMidYMid meet">
<metadata>
Created by potrace 1.10, written by Peter Selinger 2001-2011
</metadata>
<g transform="translate(0.000000,300.000000) scale(0.100000,-0.100000)"
fill="#000000" stroke="none">
<path d="M1102 2160 c-58 -36 -62 -59 -61 -352 0 -177 4 -274 12 -297 18 -50
53 -71 132 -79 67 -7 69 -8 77 -39 15 -59 32 -63 241 -63 186 0 188 0 212 25
14 13 25 35 25 48 0 23 4 25 70 29 41 3 80 12 96 22 52 34 55 62 52 371 l-3
283 -24 26 c-14 14 -41 30 -60 36 -21 6 -185 10 -386 10 -333 0 -352 -1 -383
-20z m798 -40 c19 -19 20 -33 20 -315 0 -365 15 -335 -170 -335 -71 0 -130 -4
-130 -9 0 -14 28 -33 39 -26 19 11 52 -15 49 -38 -3 -22 -5 -22 -208 -22 -194
0 -205 1 -208 19 -5 25 25 47 52 40 14 -3 25 2 34 16 12 20 10 20 -120 20
-121 0 -134 2 -155 22 l-23 21 0 293 c0 289 0 294 22 314 21 19 33 20 400 20
365 0 379 -1 398 -20z"/>
<path d="M1122 2104 c-22 -15 -22 -17 -22 -299 0 -282 0 -284 22 -299 34 -24
722 -24 756 0 22 15 22 17 22 299 0 282 0 284 -22 299 -19 14 -72 16 -378 16
-306 0 -359 -2 -378 -16z m746 -16 c9 -9 12 -86 12 -285 0 -259 -1 -273 -19
-283 -29 -15 -713 -14 -729 2 -17 17 -17 549 0 566 17 17 719 17 736 0z"/>
<path d="M1150 1808 l0 -268 55 0 55 0 0 110 c0 67 4 110 10 110 6 0 10 -35
10 -85 l0 -85 288 0 287 0 -3 242 -3 243 -284 0 -285 0 0 -127 c0 -74 -4 -129
-10 -133 -6 -4 -10 41 -10 127 l0 134 -55 0 -55 -1 0 -267z m280 223 c-1 -5
-81 -59 -102 -69 -5 -2 -8 12 -8 31 0 20 6 38 13 41 16 6 97 4 97 -3z m377 -6
c8 -22 2 -26 -51 -29 -25 -1 -54 -10 -64 -19 -16 -15 -21 -14 -65 15 -26 17
-47 34 -47 39 0 5 50 9 110 9 91 0 112 -3 117 -15z m-587 -20 c0 -25 -23 -35
-35 -15 -10 16 2 40 20 40 9 0 15 -9 15 -25z m369 -34 c19 -10 49 -34 65 -55
26 -31 31 -47 34 -104 3 -60 0 -72 -26 -113 -36 -55 -98 -89 -163 -89 -177 1
-260 215 -129 334 22 19 52 38 67 42 16 3 33 7 38 9 18 7 79 -6 114 -24z m231
-26 c0 -5 -20 -10 -45 -10 -60 0 -58 -13 3 -17 66 -4 54 -23 -15 -23 -48 0
-58 3 -61 18 -8 39 5 48 63 45 30 -2 55 -7 55 -13z m-602 -137 c-4 -181 -22
-189 -26 -11 -3 131 0 153 18 153 7 0 10 -47 8 -142z m576 -7 c23 -26 13 -59
-21 -67 -43 -11 -69 38 -37 70 21 21 37 20 58 -3z m24 -131 l-3 -35 -72 -3
c-40 -2 -73 0 -73 3 0 3 10 20 21 38 20 30 26 32 76 32 l54 0 -3 -35z m-598
-65 c0 -25 -23 -35 -35 -15 -10 16 2 40 20 40 9 0 15 -9 15 -25z"/>
<path d="M1416 1947 c-46 -26 -86 -93 -86 -145 0 -56 36 -119 84 -147 56 -33
70 -32 27 2 -107 84 -89 237 34 294 40 18 40 19 10 19 -16 0 -48 -10 -69 -23z"/>
<path d="M1282 1554 c3 -13 36 -15 282 -14 153 0 283 3 288 6 30 19 -31 24
-288 24 -254 0 -285 -2 -282 -16z"/>
<path d="M1406 1454 c-3 -9 -6 -16 -6 -17 0 -1 47 -2 104 -2 96 0 103 1 95 17
-14 25 -183 27 -193 2z"/>
<path d="M1320 1400 c0 -6 67 -10 180 -10 113 0 180 4 180 10 0 6 -67 10 -180
10 -113 0 -180 -4 -180 -10z"/>
<path d="M1745 1303 c-88 -17 -121 -74 -90 -155 6 -16 3 -17 -26 -11 -43 8
-49 17 -49 74 0 35 -6 51 -23 67 -27 26 -45 27 -73 7 -19 -12 -24 -12 -40 0
-25 19 -53 19 -75 -1 -16 -15 -20 -15 -41 0 -30 21 -47 20 -73 -4 l-22 -20
-40 22 c-37 20 -44 21 -68 8 -21 -11 -30 -12 -45 -2 -11 7 -51 12 -88 12 -60
0 -71 -3 -91 -24 l-23 -25 -30 22 c-22 17 -47 23 -104 25 -108 6 -114 -1 -114
-134 0 -97 1 -104 24 -122 37 -29 111 -28 171 3 l49 24 23 -21 c31 -29 123
-36 176 -15 21 9 39 12 42 6 10 -14 61 -11 75 6 7 8 20 15 30 15 10 0 23 -7
30 -15 7 -8 19 -15 26 -15 19 0 18 -3 -18 -56 -31 -43 -33 -44 -36 -21 -5 37
-35 61 -61 48 -13 -7 -22 -8 -26 -1 -18 30 -55 -10 -55 -60 0 -30 6 -43 26
-59 35 -28 59 -26 91 5 25 25 25 25 39 6 17 -25 100 -28 127 -4 15 14 19 13
35 -1 38 -35 122 -11 122 34 0 8 9 -1 20 -18 23 -39 43 -42 64 -11 22 30 20
70 -3 100 l-20 24 44 12 c45 12 95 3 95 -17 0 -17 -20 -23 -36 -10 -11 9 -18
8 -34 -6 -29 -26 -26 -80 5 -110 31 -32 65 -32 95 0 23 24 24 25 41 6 13 -14
29 -18 66 -16 63 3 60 2 67 21 9 23 -31 102 -54 109 -26 8 -55 -12 -76 -54
l-18 -36 -4 29 c-2 16 -10 39 -18 51 -14 21 -13 23 20 28 19 3 48 15 65 28
l29 22 27 -21 c15 -12 47 -24 71 -28 37 -5 54 -2 97 21 l52 26 16 -20 c22 -27
57 -27 84 -1 l22 20 25 -20 c32 -25 70 -26 91 -2 13 15 17 39 17 115 0 84 -3
100 -20 117 -26 26 -48 25 -76 -1 l-23 -21 -27 21 c-35 28 -65 27 -93 -3 l-23
-24 -35 24 c-20 13 -41 24 -47 25 -6 0 -19 2 -29 4 -24 5 -76 -13 -106 -37
-24 -18 -25 -18 -46 2 -25 23 -70 38 -100 33z m-922 -55 c26 -13 49 -74 42
-108 -12 -52 -48 -74 -131 -78 l-74 -4 0 105 0 104 73 -5 c39 -2 80 -9 90 -14z
m252 -3 c0 -17 -7 -20 -55 -20 -48 0 -55 -2 -55 -20 0 -17 8 -20 48 -23 38 -3
47 -7 47 -22 0 -15 -7 -18 -46 -17 -42 2 -47 0 -49 -20 -2 -21 2 -23 57 -23
51 0 58 -2 58 -20 0 -18 -7 -20 -80 -20 l-80 0 0 103 0 102 78 0 c70 -1 77 -3
77 -20z m144 -41 l51 -67 0 67 c0 64 1 66 25 66 l25 0 0 -105 c0 -102 -1 -105
-22 -105 -16 1 -37 19 -68 60 -25 33 -48 59 -51 60 -3 0 -3 -27 -1 -60 4 -59
4 -60 -22 -60 l-26 0 0 105 c0 96 2 105 19 105 11 0 39 -26 70 -66z m211 -39
l0 -105 -25 0 -25 0 0 105 0 105 25 0 25 0 0 -105z m110 20 l0 -85 55 0 c48 0
55 -2 55 -20 0 -18 -7 -20 -80 -20 l-80 0 0 98 c0 54 3 102 7 105 3 4 15 7 25
7 16 0 18 -9 18 -85z m288 71 c2 -3 1 -14 -3 -25 -5 -17 -10 -19 -26 -10 -28
14 -74 8 -74 -11 0 -9 19 -21 48 -30 26 -9 52 -22 57 -30 29 -45 -9 -90 -76
-90 -58 0 -84 13 -77 40 6 22 18 26 28 10 3 -5 24 -10 46 -10 58 0 49 28 -14
47 -56 16 -77 46 -57 82 6 12 21 26 33 31 20 9 105 6 115 -4z m223 -9 c46 -31
60 -85 35 -131 -34 -64 -126 -78 -177 -27 -41 41 -41 106 -1 143 48 45 92 49
143 15z m188 -43 l51 -67 0 67 c0 64 1 66 25 66 l25 0 0 -105 c0 -102 -1 -105
-22 -105 -16 1 -37 19 -68 60 -25 33 -48 59 -51 60 -3 0 -3 -27 -1 -60 4 -59
4 -60 -22 -60 l-26 0 0 105 c0 96 2 105 19 105 11 0 39 -26 70 -66z m-833
-203 c-8 -9 -19 -26 -23 -38 -8 -21 -10 -20 -42 18 -31 38 -32 41 -16 59 17
18 18 18 56 -2 36 -18 38 -22 25 -37z m90 34 c16 -8 40 -15 53 -15 l24 0 -23
-25 c-23 -25 -24 -25 -44 -6 -12 11 -33 23 -49 26 -22 6 -25 10 -16 21 14 18
20 17 55 -1z m-371 -78 c-7 -29 9 -52 29 -44 10 4 16 19 16 42 0 19 5 35 10
35 16 0 12 -76 -4 -90 -8 -6 -25 -10 -38 -8 -20 3 -23 10 -26 51 -2 33 0 47 7
42 6 -3 9 -16 6 -28z m205 -14 c11 -25 17 -49 14 -52 -4 -3 -9 0 -11 7 -6 14
-49 16 -58 2 -3 -5 -10 -10 -15 -10 -4 0 1 23 13 50 11 28 24 50 29 50 4 0 16
-21 28 -47z m154 31 c12 -12 13 -20 5 -35 -7 -15 -7 -24 2 -35 9 -11 8 -14 -4
-14 -8 0 -17 7 -21 15 -3 8 -10 15 -16 15 -5 0 -10 -7 -10 -15 0 -8 -6 -15
-14 -15 -9 0 -13 13 -13 43 -1 23 1 45 4 50 8 13 51 7 67 -9z m106 -34 c0 -38
-4 -50 -15 -50 -11 0 -15 12 -15 50 0 38 4 50 15 50 11 0 15 -12 15 -50z m90
10 c0 -33 3 -40 20 -40 17 0 20 7 20 40 0 22 5 40 10 40 6 0 10 -20 10 -45 0
-39 -3 -45 -25 -51 -15 -4 -32 -1 -40 6 -17 14 -21 90 -5 90 6 0 10 -18 10
-40z m205 -10 c14 -27 21 -50 16 -50 -6 0 -13 5 -16 10 -3 6 -17 10 -31 10
-13 0 -24 -4 -24 -10 0 -5 -7 -10 -15 -10 -12 0 -10 10 10 50 14 28 27 50 30
50 3 0 16 -22 30 -50z"/>
<path d="M710 1164 l0 -64 35 0 c39 0 75 28 75 59 0 30 -32 58 -72 64 l-38 6
0 -65z"/>
<path d="M1957 1219 c-42 -25 -37 -104 8 -115 36 -9 58 -1 74 27 19 34 8 73
-24 87 -31 14 -35 14 -58 1z"/>
<path d="M1430 956 c0 -8 5 -18 10 -21 13 -8 42 14 34 26 -9 15 -44 10 -44 -5z"/>
</g>
</svg>
